HIERARCHY
ROOT Hips
{
    OFFSET   0.000000   0.000000   0.000000
    CHANNELS 6 Xposition Yposition Zposition Zrotation Xrotation Yrotation
    JOINT Chest
    {
        OFFSET   0.000000   8.007230   0.000000
        CHANNELS 3 Zrotation Xrotation Yrotation
        JOINT Chest2
        {
            OFFSET   0.000000  22.077100   0.000000
            CHANNELS 3 Zrotation Xrotation Yrotation
            JOINT Neck
            {
                OFFSET   0.000000  23.255100   0.000000
                CHANNELS 3 Zrotation Xrotation Yrotation
                JOINT Head
                {
                    OFFSET   0.000000  14.370100   1.956600
                    CHANNELS 3 Zrotation Xrotation Yrotation
                    End Site
                    {
                        OFFSET   0.000000  19.566000   0.000000
                    }
                }
            }
            JOINT LeftCollar
            {
                OFFSET   3.911900  19.017000  -0.467063
                CHANNELS 3 Zrotation Xrotation Yrotation
                JOINT LeftShoulder
                {
                    OFFSET  10.383700   0.000000   0.000000
                    CHANNELS 3 Zrotation Xrotation Yrotation
                    JOINT LeftElbow
                    {
                        OFFSET  26.662100   0.001193   0.000980
                        CHANNELS 3 Zrotation Xrotation Yrotation
                        JOINT LeftWrist
                        {
                            OFFSET  28.869000  -0.000059  -0.000082
                            CHANNELS 3 Zrotation Xrotation Yrotation
                            JOINT LeftFinger0
                            {
                                OFFSET   2.044650  -2.323450   3.252850
                                CHANNELS 3 Zrotation Xrotation Yrotation
                                JOINT LeftFinger01
                                {
                                    OFFSET   3.088130   0.000000   0.000000
                                    CHANNELS 3 Zrotation Xrotation Yrotation
                                    JOINT LeftFinger02
                                    {
                                        OFFSET   2.639460   0.000000   0.000000
                                        CHANNELS 3 Zrotation Xrotation Yrotation
                                        End Site
                                        {
                                            OFFSET   2.582190   0.000000   0.000000
                                        }
                                    }
                                }
                            }
                            JOINT LeftFinger1
                            {
                                OFFSET   8.364480   0.000000   3.252850
                                CHANNELS 3 Zrotation Xrotation Yrotation
                                JOINT LeftFinger11
                                {
                                    OFFSET   4.646930   0.000000   0.000000
                                    CHANNELS 3 Zrotation Xrotation Yrotation
                                    JOINT LeftFinger12
                                    {
                                        OFFSET   2.323470   0.000000   0.000000
                                        CHANNELS 3 Zrotation Xrotation Yrotation
                                        End Site
                                        {
                                            OFFSET   2.273050   0.000000   0.000000
                                        }
                                    }
                                }
                            }
                            JOINT LeftFinger2
                            {
                                OFFSET   8.364490   0.000016   1.078090
                                CHANNELS 3 Zrotation Xrotation Yrotation
                                JOINT LeftFinger21
                                {
                                    OFFSET   5.111610   0.000000   0.000000
                                    CHANNELS 3 Zrotation Xrotation Yrotation
                                    JOINT LeftFinger22
                                    {
                                        OFFSET   2.788150   0.000016   0.000000
                                        CHANNELS 3 Zrotation Xrotation Yrotation
                                        End Site
                                        {
                                            OFFSET   2.727660   0.000000   0.000000
                                        }
                                    }
                                }
                            }
                            JOINT LeftFinger3
                            {
                                OFFSET   7.899780   0.000015  -1.078090
                                CHANNELS 3 Zrotation Xrotation Yrotation
                                JOINT LeftFinger31
                                {
                                    OFFSET   4.646930   0.000000   0.000000
                                    CHANNELS 3 Zrotation Xrotation Yrotation
                                    JOINT LeftFinger32
                                    {
                                        OFFSET   2.323470   0.000000   0.000000
                                        CHANNELS 3 Zrotation Xrotation Yrotation
                                        End Site
                                        {
                                            OFFSET   2.273050   0.000000   0.000000
                                        }
                                    }
                                }
                            }
                            JOINT LeftFinger4
                            {
                                OFFSET   7.435090   0.000000  -3.252850
                                CHANNELS 3 Zrotation Xrotation Yrotation
                                JOINT LeftFinger41
                                {
                                    OFFSET   3.717550   0.000000   0.000000
                                    CHANNELS 3 Zrotation Xrotation Yrotation
                                    JOINT LeftFinger42
                                    {
                                        OFFSET   1.858770   0.000000   0.000000
                                        CHANNELS 3 Zrotation Xrotation Yrotation
                                        End Site
                                        {
                                            OFFSET   1.818440   0.000000   0.000000
                                        }
                                    }
                                }
                            }
                        }
                    }
                }
            }
            JOINT RightCollar
            {
                OFFSET  -3.911910  19.017000  -0.467062
                CHANNELS 3 Zrotation Xrotation Yrotation
                JOINT RightShoulder
                {
                    OFFSET -10.383700   0.000014   0.000000
                    CHANNELS 3 Zrotation Xrotation Yrotation
                    JOINT RightElbow
                    {
                        OFFSET -26.662100   0.001225   0.001091
                        CHANNELS 3 Zrotation Xrotation Yrotation
                        JOINT RightWrist
                        {
                            OFFSET -28.869000  -0.000020  -0.000085
                            CHANNELS 3 Zrotation Xrotation Yrotation
                            JOINT RightFinger0
                            {
                                OFFSET  -2.044650  -2.323490   3.252850
                                CHANNELS 3 Zrotation Xrotation Yrotation
                                JOINT RightFinger01
                                {
                                    OFFSET  -3.088130   0.000000   0.000000
                                    CHANNELS 3 Zrotation Xrotation Yrotation
                                    JOINT RightFinger02
                                    {
                                        OFFSET  -2.639460   0.000000   0.000000
                                        CHANNELS 3 Zrotation Xrotation Yrotation
                                        End Site
                                        {
                                            OFFSET  -2.582190   0.000000   0.000000
                                        }
                                    }
                                }
                            }
                            JOINT RightFinger1
                            {
                                OFFSET  -8.364480   0.000000   3.252850
                                CHANNELS 3 Zrotation Xrotation Yrotation
                                JOINT RightFinger11
                                {
                                    OFFSET  -4.646930   0.000000   0.000000
                                    CHANNELS 3 Zrotation Xrotation Yrotation
                                    JOINT RightFinger12
                                    {
                                        OFFSET  -2.323470   0.000000   0.000000
                                        CHANNELS 3 Zrotation Xrotation Yrotation
                                        End Site
                                        {
                                            OFFSET  -2.273050   0.000000   0.000000
                                        }
                                    }
                                }
                            }
                            JOINT RightFinger2
                            {
                                OFFSET  -8.364480   0.000000   1.078090
                                CHANNELS 3 Zrotation Xrotation Yrotation
                                JOINT RightFinger21
                                {
                                    OFFSET  -5.111620   0.000000   0.000000
                                    CHANNELS 3 Zrotation Xrotation Yrotation
                                    JOINT RightFinger22
                                    {
                                        OFFSET  -2.788160   0.000000   0.000000
                                        CHANNELS 3 Zrotation Xrotation Yrotation
                                        End Site
                                        {
                                            OFFSET  -2.727660   0.000000   0.000000
                                        }
                                    }
                                }
                            }
                            JOINT RightFinger3
                            {
                                OFFSET  -7.899780   0.000000  -1.078090
                                CHANNELS 3 Zrotation Xrotation Yrotation
                                JOINT RightFinger31
                                {
                                    OFFSET  -4.646930   0.000000   0.000000
                                    CHANNELS 3 Zrotation Xrotation Yrotation
                                    JOINT RightFinger32
                                    {
                                        OFFSET  -2.323470   0.000000   0.000000
                                        CHANNELS 3 Zrotation Xrotation Yrotation
                                        End Site
                                        {
                                            OFFSET  -2.273050   0.000000   0.000000
                                        }
                                    }
                                }
                            }
                            JOINT RightFinger4
                            {
                                OFFSET  -7.435090   0.000000  -3.252850
                                CHANNELS 3 Zrotation Xrotation Yrotation
                                JOINT RightFinger41
                                {
                                    OFFSET  -3.717550   0.000000   0.000000
                                    CHANNELS 3 Zrotation Xrotation Yrotation
                                    JOINT RightFinger42
                                    {
                                        OFFSET  -1.858760   0.000000   0.000000
                                        CHANNELS 3 Zrotation Xrotation Yrotation
                                        End Site
                                        {
                                            OFFSET  -1.818440   0.000000   0.000000
                                        }
                                    }
                                }
                            }
                        }
                    }
                }
            }
        }
    }
    JOINT LeftHip
    {
        OFFSET   9.783030   0.000000   0.000000
        CHANNELS 3 Zrotation Xrotation Yrotation
        JOINT LeftKnee
        {
            OFFSET   0.000063 -41.789100   0.000608
            CHANNELS 3 Zrotation Xrotation Yrotation
            JOINT LeftAnkle
            {
                OFFSET   0.000048 -41.133200  -0.000184
                CHANNELS 3 Zrotation Xrotation Yrotation
                JOINT LeftToe
                {
                    OFFSET   0.000000  -6.358960  14.674500
                    CHANNELS 3 Zrotation Xrotation Yrotation
                    End Site
                    {
                        OFFSET   0.000000   0.000000   3.913200
                    }
                }
            }
        }
    }
    JOINT RightHip
    {
        OFFSET  -9.783030   0.000000   0.000000
        CHANNELS 3 Zrotation Xrotation Yrotation
        JOINT RightKnee
        {
            OFFSET   0.000071 -41.789100   0.001239
            CHANNELS 3 Zrotation Xrotation Yrotation
            JOINT RightAnkle
            {
                OFFSET   0.000037 -41.133200  -0.000166
                CHANNELS 3 Zrotation Xrotation Yrotation
                JOINT RightToe
                {
                    OFFSET   0.000000  -6.358960  14.674500
                    CHANNELS 3 Zrotation Xrotation Yrotation
                    End Site
                    {
                        OFFSET   0.000000   0.000000   3.913200
                    }
                }
            }
        }
    }
}
MOTION
Frames: 5
Frame Time:   0.016667
 -1.578150  89.966400   0.208920  -0.137380  -5.597170  -1.627570  -0.744674   4.357960  -0.340899  -1.469660   8.719950  -0.627504   1.362520   0.496935  -0.022195   2.238780   1.005870   7.754700  -2.866420  -1.593780   6.932520 -69.611800  17.440300  -1.299910  -4.155920  -2.861220 -17.395700  13.815600  -1.367380   9.488430  42.906400  37.509400 -73.019700 -28.223600   0.000429   0.002322  -9.111810  -0.001007  -0.000828 -34.728700   6.909680  -9.845850 -28.902000   0.000767   0.004154 -20.231400   0.000564  -0.000111 -28.905700  -1.535700   2.778950 -43.414700  -0.000833  -0.004436 -28.914200  -0.000278   0.000605 -28.131300  -1.498030   2.799390 -33.165400  -0.002807  -0.002165 -22.088200  -0.001486  -0.001285 -31.954100  -1.681310   2.693430 -47.990500  -0.001334  -0.001541 -31.961700   0.000000  -0.001425   8.018680   1.310900   6.786810  68.114200  13.064800  -1.738210   3.491350  -8.571200   9.624930  -9.984080 -20.707900   1.553630 -34.948500  24.563600  55.014400  33.254800   0.005014  -0.003232  11.627400   0.004993  -0.002038  30.497200   0.731630   1.241700  24.959400   0.007045   0.006990  17.471600   0.006197   0.004620  28.143800  -0.484173  -0.904310  33.010800   0.001370   0.014656  21.985200   0.000956   0.003536  27.239900  -3.763640  -7.265640  29.096700  -0.000799  -0.000659  19.378400  -0.000663   0.008924  31.577000  -4.303180  -6.960450  47.757200   0.002350   0.004617  31.806300   0.001492  -0.005019   0.251306   5.786790   2.727790   0.852405   2.316610  10.915200  -6.023670  -3.558220   2.330490  -0.000000   0.000000   0.000000   1.919990   6.633760  -7.285760   0.429141   1.847820  -6.662080 -11.031600  -0.217278   2.031340  -0.000000   0.000000   0.000000
 -1.599780  89.966400   0.175200  -0.134051  -5.641210  -1.583760  -0.749222   4.380660  -0.340798  -1.478750   8.765370  -0.627113   1.372220   0.527344  -0.022173   2.254790   1.067430   7.739740  -2.871180  -1.615590   6.944600 -69.621600  17.530500  -1.303790  -4.163960  -2.996780 -17.321200  13.820900  -1.360100   9.486970  42.907700  37.495200 -72.981400 -28.225100   0.000438   0.002324  -9.112550  -0.001013  -0.000813 -34.743100   6.901660  -9.829180 -28.912500   0.000749   0.004149 -20.238700   0.000554  -0.000117 -28.944500  -1.554260   2.807960 -43.474100  -0.000843  -0.004446 -28.953800  -0.000284   0.000581 -28.141800  -1.514770   2.829410 -33.250800  -0.002833  -0.002156 -22.145100  -0.001502  -0.001292 -32.007300  -1.702030   2.721010 -48.071600  -0.001359  -0.001548 -32.015700  -0.000035  -0.001438   8.024330   1.262880   6.789590  68.117900  13.117900  -1.743420   3.484100  -8.539590   9.614320  -9.902810 -20.749700   1.597630 -34.927200  24.559600  55.042900  33.285300   0.004985  -0.003212  11.642700   0.004998  -0.002016  30.609400   0.770871   1.301060  25.052200   0.007021   0.006955  17.536600   0.006171   0.004608  28.161000  -0.574361  -1.072090  33.140400   0.001322   0.014693  22.071500   0.000920   0.003534  27.255100  -3.840260  -7.406810  29.208300  -0.000929  -0.000746  19.452700  -0.000764   0.008909  31.625600  -4.394840  -7.092620  47.845400   0.002269   0.004601  31.865000   0.001443  -0.005022   0.261990   5.848460   2.733300   0.865300   2.276900  10.894600  -6.043650  -3.531120   2.302080  -0.000000   0.000000  -0.000000   1.937740   6.635930  -7.284730   0.423720   1.889070  -6.679770 -11.044900  -0.218352   2.001300   0.000000   0.000000  -0.000000
 -1.636990  89.966300   0.118582  -0.129073  -5.723520  -1.513850  -0.757418   4.424400  -0.340042  -1.495120   8.852840  -0.623982   1.388100   0.579633  -0.022127   2.281040   1.173350   7.716360  -2.879640  -1.652190   6.964310 -69.640800  17.697700  -1.327700  -4.175760  -3.235840 -17.189100  13.863400  -1.342960   9.485470  42.907000  37.485900 -72.939900 -28.235400   0.000453   0.002338  -9.117690  -0.001033  -0.000777 -34.780400   6.870050  -9.771550 -28.937900   0.000704   0.004139 -20.256500   0.000530  -0.000134 -28.998000  -1.589010   2.864390 -43.556700  -0.000870  -0.004472 -29.008800  -0.000299   0.000520 -28.155800  -1.546740   2.887390 -33.368400  -0.002899  -0.002135 -22.223300  -0.001543  -0.001307 -32.098400  -1.741560   2.774370 -48.210900  -0.001420  -0.001565 -32.108500  -0.000094  -0.001470   8.035090   1.172050   6.792270  68.129800  13.244400  -1.749170   3.467720  -8.477020   9.577490  -9.726300 -20.791500   1.641650 -34.876200  24.570600  55.144900  33.361700   0.004925  -0.003176  11.680900   0.005009  -0.001970  30.769500   0.860263   1.441800  25.185400   0.006968   0.006881  17.629800   0.006117   0.004578  28.192700  -0.712960  -1.329490  33.394800   0.001242   0.014771  22.240900   0.000861   0.003530  27.293200  -3.972380  -7.645950  29.477500  -0.001146  -0.000892  19.632000  -0.000934   0.008871  31.732400  -4.554050  -7.315170  48.033600   0.002135   0.004563  31.990400   0.001362  -0.005030   0.281009   5.961110   2.741930   0.886747   2.212940  10.864900  -6.076730  -3.488870   2.253240   0.000000   0.000000   0.000000   1.968110   6.646130  -7.281060   0.414488   1.960530  -6.704640 -11.067700  -0.219791   1.946070   0.000000   0.000000   0.000000
 -1.669050  89.966200   0.072986  -0.126319  -5.807610  -1.458270  -0.767668   4.471850  -0.335964  -1.515330   8.947710  -0.613992   1.403130   0.622019  -0.022053   2.309810   1.259410   7.700630  -2.890390  -1.684230   6.982740 -69.654600  17.872400  -1.392080  -4.182990  -3.476510 -17.063100  13.953800  -1.331090   9.517770  42.939700  37.568800 -72.962000 -28.305300   0.000461   0.002371  -9.152640  -0.001067  -0.000722 -34.828400   6.801950  -9.659550 -28.966700   0.000636   0.004128 -20.276700   0.000490  -0.000166 -29.018500  -1.627170   2.930830 -43.590000  -0.000912  -0.004514 -29.031000  -0.000323   0.000431 -28.160100  -1.583160   2.954810 -33.411300  -0.002998  -0.002108 -22.251900  -0.001606  -0.001329 -32.184100  -1.786670   2.836490 -48.342500  -0.001514  -0.001593 -32.196200  -0.000138  -0.001520   8.044820   1.080270   6.791520  68.147000  13.413700  -1.711320   3.446660  -8.405700   9.511140  -9.490480 -20.740600   1.633910 -34.795500  24.619700  55.382300  33.490100   0.004849  -0.003136  11.745100   0.005024  -0.001913  30.851200   0.977058   1.633840  25.253700   0.006894   0.006776  17.677600   0.006042   0.004535  28.223800  -0.816483  -1.520180  33.663600   0.001166   0.014874  22.420000   0.000801   0.003525  27.353600  -4.099380  -7.870680  29.891400  -0.001363  -0.001037  19.907700  -0.001104   0.008813  31.875300  -4.708490  -7.527920  48.277700   0.002001   0.004505  32.153000   0.001280  -0.005047   0.296754   6.103380   2.747180   0.902136   2.155730  10.849100  -6.102790  -3.461170   2.209480   0.000000   0.000000   0.000000   1.992210   6.669640  -7.273290   0.407669   2.021230  -6.715530 -11.086700  -0.220220   1.887200  -0.000000   0.000000   0.000000
 -1.702890  89.966200   0.025738  -0.129306  -5.903360  -1.418730  -0.775304   4.526300  -0.317416  -1.532560   9.056390  -0.575853   1.411990   0.671974  -0.021996   2.320460   1.360750   7.687340  -2.896100  -1.712170   6.993580 -69.678500  18.056300  -1.483010  -4.186940  -3.689000 -16.934500  14.125000  -1.287940   9.636830  42.997900  37.728000 -73.027600 -28.437800   0.000474   0.002418  -9.218910  -0.001117  -0.000662 -34.910400   6.720720  -9.518270 -29.021200   0.000552   0.004113 -20.314800   0.000440  -0.000206 -29.023300  -1.665180   2.998310 -43.600200  -0.000965  -0.004569 -29.037700  -0.000351   0.000313 -28.159200  -1.619800   3.023060 -33.422100  -0.003120  -0.002075 -22.259200  -0.001684  -0.001357 -32.257500  -1.831740   2.899620 -48.455800  -0.001629  -0.001626 -32.271600  -0.000185  -0.001581   8.049710   0.968417   6.787560  68.163100  13.652400  -1.614630   3.424420  -8.323370   9.415140  -9.211130 -20.582400   1.595870 -34.712600  24.681100  55.602600  33.622500   0.004772  -0.003100  11.811200   0.005040  -0.001855  30.879200   1.132760   1.892780  25.281700   0.006819   0.006672  17.697200   0.005966   0.004487  28.263700  -0.871578  -1.621250  34.010000   0.001121   0.014977  22.650700   0.000766   0.003520  27.424900  -4.208010  -8.049190  30.356900  -0.001493  -0.001123  20.217700  -0.001206   0.008742  32.045400  -4.843900  -7.683300  48.557200   0.001920   0.004434  32.339100   0.001231  -0.005066   0.318058   6.194650   2.752710   0.921067   2.122760  10.842400  -6.128570  -3.436970   2.167090   0.000000   0.000000  -0.000000   2.021020   6.698050  -7.264700   0.398430   2.089500  -6.719430 -11.107300  -0.220287   1.829740  -0.000000   0.000000   0.000000
